<mxfile host="app.diagrams.net" modified="2020-11-10T04:26:11.189Z" agent="5.0 (Macintosh; Intel Mac OS X 10_15_7) AppleWebKit/537.36 (KHTML, like Gecko) Chrome/86.0.4240.183 Safari/537.36" etag="GOOCqCBjR6WfzgqbBy1Z" version="13.8.6" type="github">
  <diagram id="_ukzy78oqEWSLwYojO6i" name="Page-1">
    <mxGraphModel dx="679" dy="536" grid="1" gridSize="10" guides="1" tooltips="1" connect="1" arrows="1" fold="1" page="1" pageScale="1" pageWidth="827" pageHeight="1169" math="0" shadow="0">
      <root>
        <mxCell id="0" />
        <mxCell id="1" parent="0" />
        <mxCell id="7f28F0L_WMyft8yCQ9oK-3" value="" style="edgeStyle=orthogonalEdgeStyle;rounded=0;orthogonalLoop=1;jettySize=auto;html=1;exitX=0.25;exitY=1;exitDx=0;exitDy=0;" edge="1" parent="1" source="7f28F0L_WMyft8yCQ9oK-1" target="7f28F0L_WMyft8yCQ9oK-2">
          <mxGeometry relative="1" as="geometry" />
        </mxCell>
        <mxCell id="7f28F0L_WMyft8yCQ9oK-4" value="" style="edgeStyle=orthogonalEdgeStyle;rounded=0;orthogonalLoop=1;jettySize=auto;html=1;entryX=0.5;entryY=0;entryDx=0;entryDy=0;exitX=0.75;exitY=1;exitDx=0;exitDy=0;" edge="1" parent="1" source="7f28F0L_WMyft8yCQ9oK-1" target="7f28F0L_WMyft8yCQ9oK-5">
          <mxGeometry relative="1" as="geometry">
            <mxPoint x="280" y="190" as="targetPoint" />
          </mxGeometry>
        </mxCell>
        <mxCell id="7f28F0L_WMyft8yCQ9oK-1" value="高召回" style="rounded=1;whiteSpace=wrap;html=1;" vertex="1" parent="1">
          <mxGeometry x="330" y="50" width="120" height="60" as="geometry" />
        </mxCell>
        <mxCell id="7f28F0L_WMyft8yCQ9oK-7" value="" style="edgeStyle=orthogonalEdgeStyle;rounded=0;orthogonalLoop=1;jettySize=auto;html=1;" edge="1" parent="1" source="7f28F0L_WMyft8yCQ9oK-2" target="7f28F0L_WMyft8yCQ9oK-6">
          <mxGeometry relative="1" as="geometry" />
        </mxCell>
        <mxCell id="7f28F0L_WMyft8yCQ9oK-2" value="spam文案&lt;br&gt;&lt;br&gt;异常分割&lt;br&gt;变体字符&lt;br&gt;字母 数字&lt;br&gt;谐音" style="whiteSpace=wrap;html=1;rounded=1;" vertex="1" parent="1">
          <mxGeometry x="240" y="200" width="120" height="120" as="geometry" />
        </mxCell>
        <mxCell id="7f28F0L_WMyft8yCQ9oK-9" value="" style="edgeStyle=orthogonalEdgeStyle;rounded=0;orthogonalLoop=1;jettySize=auto;html=1;" edge="1" parent="1" source="7f28F0L_WMyft8yCQ9oK-5" target="7f28F0L_WMyft8yCQ9oK-8">
          <mxGeometry relative="1" as="geometry" />
        </mxCell>
        <mxCell id="7f28F0L_WMyft8yCQ9oK-5" value="勾引文案&lt;br&gt;&lt;br&gt;无聊，想" style="whiteSpace=wrap;html=1;rounded=1;" vertex="1" parent="1">
          <mxGeometry x="440" y="200" width="120" height="120" as="geometry" />
        </mxCell>
        <mxCell id="7f28F0L_WMyft8yCQ9oK-6" value="不容易聚到&lt;br&gt;&lt;br&gt;封禁率高" style="whiteSpace=wrap;html=1;rounded=1;" vertex="1" parent="1">
          <mxGeometry x="240" y="350" width="120" height="80" as="geometry" />
        </mxCell>
        <mxCell id="7f28F0L_WMyft8yCQ9oK-11" value="" style="edgeStyle=orthogonalEdgeStyle;rounded=0;orthogonalLoop=1;jettySize=auto;html=1;entryX=0.4;entryY=0;entryDx=0;entryDy=0;entryPerimeter=0;" edge="1" parent="1" source="7f28F0L_WMyft8yCQ9oK-8" target="7f28F0L_WMyft8yCQ9oK-10">
          <mxGeometry relative="1" as="geometry">
            <mxPoint x="550" y="490" as="targetPoint" />
            <Array as="points">
              <mxPoint x="530" y="450" />
              <mxPoint x="578" y="450" />
            </Array>
          </mxGeometry>
        </mxCell>
        <mxCell id="7f28F0L_WMyft8yCQ9oK-12" value="" style="edgeStyle=orthogonalEdgeStyle;rounded=0;orthogonalLoop=1;jettySize=auto;html=1;" edge="1" parent="1" source="7f28F0L_WMyft8yCQ9oK-8">
          <mxGeometry relative="1" as="geometry">
            <mxPoint x="450" y="490" as="targetPoint" />
            <Array as="points">
              <mxPoint x="480" y="450" />
              <mxPoint x="450" y="450" />
            </Array>
          </mxGeometry>
        </mxCell>
        <mxCell id="7f28F0L_WMyft8yCQ9oK-8" value="容易聚到&lt;br&gt;" style="whiteSpace=wrap;html=1;rounded=1;" vertex="1" parent="1">
          <mxGeometry x="440" y="350" width="120" height="60" as="geometry" />
        </mxCell>
        <mxCell id="7f28F0L_WMyft8yCQ9oK-10" value="spam&lt;br&gt;对抗高&lt;br&gt;&lt;br&gt;放大看，手机背面&lt;br&gt;老公 问题 解决&lt;br&gt;滴滴&lt;br&gt;&lt;br&gt;正常用户的词去掉" style="whiteSpace=wrap;html=1;rounded=1;" vertex="1" parent="1">
          <mxGeometry x="530" y="490" width="120" height="130" as="geometry" />
        </mxCell>
        <mxCell id="7f28F0L_WMyft8yCQ9oK-13" value="低质量&lt;br&gt;对抗低&lt;br&gt;文本短&lt;br&gt;&lt;br&gt;加我，无聊，你好" style="whiteSpace=wrap;html=1;rounded=1;" vertex="1" parent="1">
          <mxGeometry x="360" y="490" width="120" height="80" as="geometry" />
        </mxCell>
      </root>
    </mxGraphModel>
  </diagram>
</mxfile>
